<svg width="355" height="193" viewBox="0 0 355 193" fill="none" xmlns="http://www.w3.org/2000/svg">
<path d="M164.727 2.57272C137.591 3.82726 112.391 8.35454 88.0909 16.3182C75.109 20.6 67.309 23.7364 57.2727 28.7545C28.909 42.9909 10.8545 61.1273 5.0454 81.3364C2.91813 88.7 2.56359 96.2818 3.98177 104C5.3454 111.445 8.53631 119.082 13.2 126.091C27.1909 147.145 54.2727 165.336 88.4999 176.682C129.409 190.236 178.255 194.245 224.318 187.836C254.536 183.636 282.491 174.909 303.409 163.182C322.636 152.409 335.836 140.327 343.936 126.091C353.836 108.745 354.655 89.1364 346.227 71.3273C340.8 59.9273 331.582 49.2364 319.227 40.0182C292.091 19.8091 250.718 6.55454 204.136 3.0909C193.118 2.29999 175.909 2.05454 164.727 2.57272ZM192.136 5.02726C210.464 5.84545 230.7 8.73635 248.564 13.0454C277.609 20.0545 302.536 31.4818 319.5 45.6091C322.882 48.4182 328.909 54.5 331.418 57.6636C335.536 62.8182 339.273 69.2 341.318 74.5727C345.136 84.5545 345.845 95.6545 343.336 105.664C337.882 127.4 318.382 146.6 287.727 160.4C261.791 172.073 230.591 179.164 195 181.509C187.773 182 160.964 181.973 153.545 181.509C115.418 179.027 81.7909 170.845 55.0909 157.591C41.4272 150.8 31.2272 143.736 22.7727 135.255C16.6636 129.091 12.8454 123.882 9.68177 117.309C1.5545 100.4 2.91813 82.2364 13.5818 65.5454C18.3818 58.0454 26.9727 49.1818 36.0545 42.4182C47.0727 34.2091 61.5545 26.5727 76.9909 20.7909C94.1454 14.3818 109.882 10.5636 131.591 7.56363C151.582 4.80908 170.318 4.01817 192.136 5.02726Z" fill="#FE0000"/>
<path d="M192.136 5.02725C210.464 5.84544 230.7 8.73635 248.564 13.0454C277.609 20.0545 302.536 31.4818 319.5 45.6091C322.882 48.4182 328.909 54.5 331.418 57.6636C335.536 62.8182 339.273 69.2 341.318 74.5727C345.136 84.5545 345.845 95.6545 343.336 105.664C337.882 127.4 318.382 146.6 287.727 160.4C261.791 172.073 230.591 179.164 195 181.509C187.773 182 160.964 181.973 153.545 181.509C115.418 179.027 81.7909 170.845 55.0909 157.591C41.4272 150.8 31.2272 143.736 22.7727 135.255C16.6636 129.091 12.8454 123.882 9.68177 117.309C1.5545 100.4 2.91813 82.2363 13.5818 65.5454C18.3818 58.0454 26.9727 49.1818 36.0545 42.4182C47.0727 34.2091 61.5545 26.5727 76.9909 20.7909C94.1454 14.3818 109.882 10.5636 131.591 7.56362C151.582 4.80907 170.318 4.01816 192.136 5.02725Z" fill="white"/>
<path d="M166.636 19.8909C128.564 21.8818 95.3454 29.7091 69.3 42.8545C59.4 47.8455 52.1454 52.6455 44.8909 59.0273C35.3182 67.4273 29.1545 77.0545 26.8364 87.2545C26.2636 89.7364 26.0182 97.2636 26.4273 99.9091C27.9545 109.918 33.3 119.818 41.9182 128.682C44.3182 131.136 48.2454 134.682 48.3818 134.518C48.4364 134.464 47.5091 133.373 46.3091 132.091C39.2182 124.509 34.9636 116.791 33.3818 108.636C32.7273 105.227 32.7273 98.8455 33.3545 95.3818C36.4364 78.8273 50.4 64.1818 74.0454 52.7273C95.5091 42.3091 123.845 35.2455 154.364 32.7091C165.927 31.7273 169.309 31.5909 182.727 31.5909C198.3 31.5909 206.373 32.0273 219.682 33.5273C234.164 35.1636 248.755 37.9455 261.055 41.3818C263.127 41.9545 264.573 42.7182 264.245 43.0455C264.164 43.1 262.036 42.6636 259.5 42.0636C233.4 35.9545 213.273 33.6091 186.955 33.5545C156.027 33.5273 128.945 37.0727 104.073 44.4364C97.0909 46.5091 89.1545 49.3455 82.9636 52.0182C61.8545 61.1 46.9091 73.7818 41.7545 86.9545C39.7364 92.1091 39.4364 93.6909 39.4364 99.3636C39.4091 103.755 39.4909 104.736 40.0636 107C42.6545 117.445 49.6364 126.582 61.5273 135.173C67.7727 139.673 77.8909 145.018 87 148.673C108.055 157.1 134.591 162.745 162.955 164.791C175.445 165.718 196.091 165.855 207.409 165.091C244.473 162.664 277.118 155.327 297.682 144.882C318.791 134.109 332.291 119.109 335.918 102.364C336.627 99.0909 336.6 90.9091 335.891 87.6364C332.918 73.9455 323.182 61.5364 306.818 50.6C292.609 41.1091 273.109 33.0636 251.318 27.6909C236.482 24.0364 221.809 21.7727 202.773 20.2455C199.227 19.9727 170.645 19.6727 166.636 19.8909ZM75.5182 72.6091L84.6273 72.6364L84.4909 73.8364C84.3273 75.2273 83.3455 77.3 82.4455 78.1455C81.7909 78.7455 81.6 78.7727 75.1909 78.8545L68.5909 78.9636L67.3364 82.7273C66.6273 84.8 66.1364 86.5727 66.2182 86.6545C66.3 86.7364 68.1818 86.8182 70.3909 86.8182C73.6091 86.8182 74.7273 86.9273 76.1454 87.3636C78.4091 88.0455 79.9364 89.1909 80.9182 90.8273C81.6273 92.0273 81.6818 92.3545 81.6545 94.8636C81.6545 97.2364 81.5454 97.8909 80.7545 99.9636C79.2 104.109 76.8818 107.273 74.2909 108.8C73.6909 109.155 72.2182 109.7 71.0454 110C69.1091 110.491 68.0182 110.545 59.8091 110.545H50.7273V109.755C50.7273 109.318 51.4636 106.782 52.3909 104.109C53.2909 101.409 54.2727 98.5455 54.5454 97.7273C54.8182 96.9091 55.7454 94.2636 56.5909 91.8636C57.4636 89.4636 59.1818 84.4455 60.4364 80.7364C61.7182 77 62.8909 73.7273 63.0818 73.4273C63.4636 72.8273 64.7182 72.3636 65.7273 72.5C66.1091 72.5546 70.5 72.6091 75.5182 72.6091ZM256.255 72.9364C257.018 73.5636 256.636 75.4182 254.427 81.9909C251.945 89.3818 251.455 90.9091 251.564 90.9091C251.591 90.9091 254.209 88.7 257.345 86L263.045 81.1182L266.427 81.0909C269.536 81.0909 269.755 81.1182 269.427 81.5545C269.209 81.8 266.591 84.0909 263.618 86.6545L258.164 91.3182L260.564 91.4818C263.073 91.6455 263.836 92 264.9 93.4182C266.1 95.0273 265.855 96.4727 263.045 104.627C261.736 108.391 261.736 108.391 262.2 109.373C262.445 109.891 262.582 110.409 262.5 110.518C262.391 110.6 260.918 110.655 259.2 110.655C254.291 110.573 254.155 110.245 256.473 103.618C259.009 96.3909 258.873 96.0909 252.845 96.0909H249.6L248.755 98.6C246.055 106.727 244.909 109.836 244.527 110.218C244.173 110.573 243.573 110.655 241.473 110.6C240.027 110.573 238.745 110.464 238.609 110.382C237.955 109.973 237.955 109.973 243.955 92.5455C246.491 85.2636 248.918 78.0909 249.409 76.5909C250.5 73.1273 250.745 72.6909 251.645 72.5546C252.845 72.3364 255.845 72.5818 256.255 72.9364ZM294.682 81.0364C295.636 81.3636 296.209 81.7727 296.645 82.4273C297.682 83.9818 297.491 85.2364 295.255 91.7545C294.136 94.9727 292.309 100.264 291.164 103.564C290.045 106.836 288.9 109.755 288.655 110.027C288.273 110.464 287.782 110.545 285.9 110.545C283.964 110.545 283.555 110.464 283.064 109.973C282.545 109.455 282.491 109.182 282.655 107.927C282.736 107.109 282.764 106.455 282.709 106.455C282.627 106.455 282 107.218 281.291 108.118C279.518 110.436 278.455 110.873 274.664 110.9C272.236 110.9 271.555 110.818 270.409 110.3C268.527 109.455 267.873 108.773 267.382 107.027C266.809 105.145 267 103.373 268.118 100.427C269.345 97.0182 270.491 95.1091 272.1 93.6364C274.473 91.4818 275.727 91.1273 282 90.9364C285.6 90.8273 287.536 90.6364 287.945 90.4182C288.682 89.9818 289.609 88.1273 289.636 87.0364C289.636 86.5727 289.445 86.1909 289.118 86C288.791 85.8364 286.473 85.7273 283.445 85.7273C279.791 85.7273 278.182 85.6182 277.964 85.4C277.445 84.8818 277.582 83.7091 278.291 82.0455L278.973 80.5455H286.145C292.173 80.5727 293.536 80.6545 294.682 81.0364ZM323.891 81.4727C324.682 82.5636 324.873 81.8273 318.818 99.3636C317.455 103.345 316.091 107.355 315.791 108.282C315.464 109.291 315.027 110.109 314.727 110.273C313.936 110.682 309.491 110.627 308.864 110.164C308.373 109.809 308.4 109.618 310.036 104.791C310.964 102.036 311.727 99.6909 311.727 99.5545C311.727 99.4455 311.427 99.3636 311.045 99.3636C310.282 99.3636 310.609 99.0636 304.718 105.555L300.218 110.545H296.973C294.873 110.545 293.727 110.436 293.727 110.245C293.727 110 296.073 107.3 302.536 99.9909L303.6 98.8182L302.809 98.5182C298.882 97.0182 298.118 92.6818 300.791 86.7636C302.155 83.7364 305.182 81.5818 308.782 81.0909C309.736 80.9818 313.418 80.8727 316.991 80.9C323.1 80.9545 323.536 80.9818 323.891 81.4727ZM105.6 81.3909C107.864 81.8545 109.555 82.9182 110.4 84.3364C111.055 85.4273 111.136 85.8636 111.109 87.7727C111.055 91.5091 109.227 95.7091 107.318 96.5273C106.582 96.8273 104.782 96.9091 99.0545 96.9091H91.7182L91.2545 98.5455C90.2182 102.227 90.4091 103.891 91.9636 104.736C92.7545 105.145 93.6 105.227 98.5091 105.227C103.445 105.227 104.209 105.282 104.618 105.691C105.055 106.127 105.027 106.236 104.291 107.736C103.827 108.664 103.145 109.564 102.627 109.891C101.373 110.709 98.8909 111.091 94.6364 111.091C88.3909 111.091 85.8818 110.327 84.4364 107.982C82.8818 105.473 83.2091 100.345 85.2545 94.4C87.3 88.5364 90.1091 84.5818 93.5182 82.8909C96.7091 81.2545 101.918 80.6273 105.6 81.3909ZM131.345 81.7727C131.755 82.4 131.782 83.1636 131.482 90.3091C131.318 94.6182 131.045 100.918 130.855 104.327L130.527 110.545H127.309H124.091V108.527C124.091 107.409 124.2 104 124.364 100.945C124.5 97.8909 124.691 94.0727 124.773 92.4091C124.855 90.6364 124.827 89.5455 124.664 89.6818C124.445 89.9273 122.782 92.6818 115.064 105.555C111.709 111.118 112.309 110.655 108.682 110.545C107.618 110.518 106.691 110.355 106.582 110.191C106.336 109.782 106.882 108.827 114 97.1818C117.245 91.8636 120.545 86.4364 121.309 85.1273C122.1 83.8455 123.164 82.4 123.682 81.9364C124.636 81.0909 124.664 81.0909 127.773 81.0909C130.8 81.0909 130.909 81.1182 131.345 81.7727ZM160.555 81.2545C160.882 81.3364 161.264 81.7455 161.427 82.1545C161.782 82.9727 161.7 83.2455 158.373 92.9545C157.391 95.7909 155.673 100.836 154.527 104.109C153.409 107.382 152.345 110.191 152.127 110.3C151.936 110.436 150.491 110.518 148.909 110.491C146.073 110.409 146.045 110.409 145.964 109.727C145.909 109.345 146.618 106.918 147.518 104.327L149.155 99.6364H148.282C147.464 99.6364 146.973 100.1 142.527 105.091L137.673 110.545H134.264C132.191 110.545 130.909 110.436 130.964 110.273C131.018 110.136 133.227 107.545 135.9 104.545C138.6 101.518 140.727 99.0091 140.673 98.9818C140.645 98.9273 140.073 98.6273 139.473 98.3273C137.455 97.3182 136.364 95.4636 136.364 93.0636C136.364 91.7273 137.618 87.5 138.409 86.1091C139.745 83.8182 142.445 81.9091 145.173 81.3909C146.482 81.1182 159.655 81.0091 160.555 81.2545ZM184.555 82.0182C188.155 83.6545 189 86.8182 187.227 92.0273C186.436 94.3455 185.809 95.4636 184.827 96.2C184.091 96.7455 183.627 96.7727 176.4 96.9091L168.736 97.0455L168.218 98.5455C167.536 100.536 167.291 102.936 167.7 103.673C168.436 105.036 169.364 105.227 174.955 105.2C177.818 105.2 180.6 105.036 181.173 104.873C182.127 104.6 182.182 104.627 182.182 105.173C182.182 105.964 180.764 108.936 180.109 109.509C178.855 110.627 177.545 110.9 173.045 111.036C168.191 111.173 165.3 110.845 163.582 109.973C162.136 109.236 161.645 108.745 160.882 107.273C158.7 102.991 162.436 90.3091 167.345 85.2636C170.318 82.2091 173.755 81.0636 179.455 81.1727C182.536 81.2545 183.027 81.3364 184.555 82.0182ZM209.891 81.5C211.5 81.9636 213.464 83.5727 213.982 84.8273C214.5 86.0273 214.473 86.9818 213.818 89.0545C213.055 91.5636 211.964 92.9545 210.3 93.5273L208.964 94.0182L210.055 94.8091C211.527 95.8727 211.991 97.1 211.855 99.5C211.691 101.736 210.982 103.618 209.236 106.264C207.845 108.418 206.727 109.264 204.3 110C202.773 110.491 201.791 110.545 194.945 110.545C190.227 110.545 187.118 110.436 186.791 110.273C186.409 110.055 186.273 109.7 186.273 108.8C186.273 107.3 185.755 108.936 193.473 86.5727C194.836 82.6727 195.191 81.9909 196.145 81.4455C197.1 80.9273 208.091 80.9545 209.891 81.5ZM240.818 81.4727C240.818 82.1818 239.645 84.7727 238.991 85.4545C238.364 86.1091 238.2 86.1364 234.055 86.2727C229.118 86.4364 228.082 86.7909 226.609 88.8091C224.4 91.7545 221.727 99.1182 221.727 102.145C221.727 103.918 222.3 104.682 223.827 105.009C225.382 105.336 233.564 105.2 234.245 104.845C234.764 104.545 234.818 104.6 234.818 105.2C234.818 106.345 233.618 108.718 232.582 109.618C231.355 110.709 229.309 111.091 224.973 111.091C219.791 111.091 217.364 110.409 215.782 108.5C214.718 107.191 214.364 105.882 214.364 103.291C214.364 98.4364 217.118 90.9364 220.527 86.5182C222.545 83.9 224.673 82.3182 227.318 81.4727C228.955 80.9545 240.818 80.9545 240.818 81.4727Z" fill="#FE0000"/>
<path d="M61.9364 98.3273C60.9818 101.218 60.1364 103.755 60.0545 103.945C59.9454 104.245 60.6818 104.3 64.1182 104.218C67.8545 104.136 68.4545 104.055 69.4909 103.509C71.6182 102.391 73.3909 99.0091 73.4727 96.0364C73.5 94.7545 73.3909 94.3455 72.8727 93.8545C72.3 93.2545 72 93.2273 67.9636 93.1455L63.6818 93.0636L61.9364 98.3273Z" fill="#FE0000"/>
<path d="M278.836 96.6091C277.309 97.2909 276.109 98.8727 275.4 101.055C274.664 103.345 274.882 104.245 276.273 104.736C278.4 105.445 282.082 104.9 283.5 103.645C283.936 103.236 284.591 101.9 285.409 99.5545L286.636 96.0909H283.282C280.636 96.0909 279.736 96.2 278.836 96.6091Z" fill="#FE0000"/>
<path d="M310.391 86.3C308.236 86.7091 307.254 87.8 306.409 90.7182C306 92.1636 306 92.3545 306.382 92.9545C306.927 93.7727 307.882 93.9636 311.154 93.8545L313.718 93.7727L314.863 90.6364C315.491 88.9182 316.091 87.1727 316.2 86.7364L316.363 86L313.991 86.0273C312.654 86.0545 311.045 86.1636 310.391 86.3Z" fill="#FE0000"/>
<path d="M98.4547 86.5182C96.4093 87.1727 95.2093 88.3727 94.2275 90.6909L93.8184 91.7273H98.7002H103.582L103.882 90.8818C104.346 89.5182 104.264 87.7727 103.664 87.0636C103.227 86.5182 102.873 86.4091 101.155 86.3545C100.037 86.3273 98.8365 86.3818 98.4547 86.5182Z" fill="#FE0000"/>
<path d="M146.891 86.5455C146.482 86.6818 145.882 87.0091 145.582 87.2818C144.736 88.0182 143.455 90.9091 143.455 92.0545C143.455 93.6636 144.245 94.0182 147.845 94.0455C149.455 94.0455 150.845 93.9636 150.927 93.8818C151.118 93.6909 153.273 87.7727 153.464 86.8727C153.6 86.2727 153.573 86.2727 150.655 86.3C149.018 86.3 147.327 86.4364 146.891 86.5455Z" fill="#FE0000"/>
<path d="M175.336 86.5182C173.482 87.0909 172.391 88.1 171.382 90.2273L170.727 91.5909L175.554 91.6727C178.2 91.7 180.463 91.6455 180.6 91.5091C180.927 91.1818 181.2 88.6182 180.982 87.7727C180.873 87.3091 180.491 86.9273 179.863 86.6545C178.882 86.2455 176.509 86.1909 175.336 86.5182Z" fill="#FE0000"/>
<path d="M199.609 88.9182C199.145 90.3909 198.681 91.7545 198.6 91.9182C198.409 92.4909 203.809 92.3818 205.009 91.8091C206.4 91.1545 207.327 89.6273 207.218 88.1545C207.109 86.5455 206.509 86.2727 203.127 86.2727H200.509L199.609 88.9182Z" fill="#FE0000"/>
<path d="M195.463 100.918C194.754 102.991 194.182 104.791 194.182 104.927C194.182 105.036 195.736 105.091 197.673 105.064C200.536 104.982 201.3 104.873 202.063 104.409C203.427 103.591 204.518 101.9 204.709 100.291C204.873 99.0909 204.791 98.8182 204.191 98.1091C203.509 97.3182 203.482 97.3182 200.127 97.2364L196.773 97.1273L195.463 100.918Z" fill="#FE0000"/>
</svg>
