<?xml version="1.0" encoding="UTF-8" standalone="no"?>
<!-- Created with Inkscape (http://www.inkscape.org/) -->

<svg
   xmlns:dc="http://purl.org/dc/elements/1.1/"
   xmlns:cc="http://creativecommons.org/ns#"
   xmlns:rdf="http://www.w3.org/1999/02/22-rdf-syntax-ns#"
   xmlns:svg="http://www.w3.org/2000/svg"
   xmlns="http://www.w3.org/2000/svg"
   xmlns:sodipodi="http://sodipodi.sourceforge.net/DTD/sodipodi-0.dtd"
   xmlns:inkscape="http://www.inkscape.org/namespaces/inkscape"
   width="4.5959482cm"
   height="3.4198313cm"
   viewBox="0 0 45.959484 34.198314"
   version="1.1"
   id="svg192"
   inkscape:version="0.92.0 r15299"
   sodipodi:docname="shpk-gv.svg">
  <defs
     id="defs186">
    <pattern
       patternUnits="userSpaceOnUse"
       width="158.46598"
       height="113.61698"
       patternTransform="matrix(0.26458333,0,0,0.26458333,85.625532,46.868231)"
       id="pattern2212">
      <path
         inkscape:connector-curvature="0"
         style="fill:#e30016;fill-opacity:1;fill-rule:evenodd;stroke:none;stroke-width:0.37795275;stroke-miterlimit:4;stroke-dasharray:none"
         d="M 79.226789,0.22654488 V 0 c 14.580473,0 26.964741,2.3786835 39.600721,7.6080227 l -0.0881,0.2076472 -0.0881,0.2076473 C 106.07833,2.8191496 93.744408,0.45304441 79.226827,0.45304441 Z"
         id="path3949" />
      <path
         inkscape:connector-curvature="0"
         style="fill:#e30016;fill-opacity:1;fill-rule:evenodd;stroke:none;stroke-width:0.37795275;stroke-miterlimit:4;stroke-dasharray:none"
         d="m 118.73944,7.8156926 0.0881,-0.2076472 c 6.3117,2.6052356 11.73611,5.5313916 16.49348,8.9421016 l -0.13229,0.182513 -0.13228,0.182476 C 130.32423,13.529601 124.93129,10.61602 118.65104,8.0233776 Z"
         id="path3953" />
      <path
         inkscape:connector-curvature="0"
         style="fill:#e30016;fill-opacity:1;fill-rule:evenodd;stroke:none;stroke-width:0.37795275;stroke-miterlimit:4;stroke-dasharray:none"
         d="m 135.18889,16.732626 0.13229,-0.182513 c 4.76364,3.410717 8.85399,7.299681 12.50381,11.824229 l -0.17613,0.144718 -0.17612,0.144756 c -3.61833,-4.499346 -7.68352,-8.363134 -12.41571,-11.748684 z"
         id="path3955" />
      <path
         inkscape:connector-curvature="0"
         style="fill:#e30016;fill-opacity:1;fill-rule:evenodd;stroke:none;stroke-width:0.37795275;stroke-miterlimit:4;stroke-dasharray:none"
         d="m 147.64863,28.519087 0.17613,-0.144718 c 3.65616,4.537114 6.31801,9.023901 8.06113,13.693179 l -0.21392,0.07551 -0.20788,0.08183 c -1.73053,-4.625227 -4.3672,-9.074252 -7.99188,-13.561028 z"
         id="path3959" />
      <path
         inkscape:connector-curvature="0"
         style="fill:#e30016;fill-opacity:1;fill-rule:evenodd;stroke:none;stroke-width:0.37795275;stroke-miterlimit:4;stroke-dasharray:none"
         d="m 155.67201,42.143051 0.21392,-0.07552 c 1.74943,4.662993 2.58005,9.508468 2.58005,14.7441 h -0.22639 -0.22639 c 0,-5.179004 -0.82436,-9.967839 -2.54858,-14.586777 z"
         id="path3961" />
      <path
         inkscape:connector-curvature="0"
         style="fill:#e30016;fill-opacity:1;fill-rule:evenodd;stroke:none;stroke-width:0.37795275;stroke-miterlimit:4;stroke-dasharray:none"
         d="m 158.23948,56.811636 h 0.22639 c 0,5.229339 -0.83063,10.074818 -2.58006,14.744096 l -0.21392,-0.08183 -0.20787,-0.08183 c 1.72422,-4.612634 2.54861,-9.40148 2.54861,-14.580472 z"
         id="path3963" />
      <path
         inkscape:connector-curvature="0"
         style="fill:#e30016;fill-opacity:1;fill-rule:evenodd;stroke:none;stroke-width:0.37795275;stroke-miterlimit:4;stroke-dasharray:none"
         d="m 155.67201,71.47392 0.21392,0.08183 c -1.74308,4.662981 -4.40497,9.149767 -8.06109,13.686901 l -0.17613,-0.144756 -0.17613,-0.144756 c 3.62465,-4.486786 6.26136,-8.935823 7.99189,-13.56105 z"
         id="path3965" />
      <path
         inkscape:connector-curvature="0"
         style="fill:#e30016;fill-opacity:1;fill-rule:evenodd;stroke:none;stroke-width:0.37795275;stroke-miterlimit:4;stroke-dasharray:none"
         d="m 147.64863,85.097892 0.17613,0.144756 c -3.64981,4.524529 -7.74017,8.413501 -12.50381,11.824218 l -0.13228,-0.182513 -0.13229,-0.182514 c 4.7322,-3.385538 8.79734,-7.24933 12.41575,-11.748703 z"
         id="path3969" />
      <path
         inkscape:connector-curvature="0"
         style="fill:#e30016;fill-opacity:1;fill-rule:evenodd;stroke:none;stroke-width:0.37795275;stroke-miterlimit:4;stroke-dasharray:none"
         d="m 135.18889,96.884357 0.13229,0.182513 c -4.75737,3.41071 -10.18182,6.33688 -16.49352,8.94211 l -0.0881,-0.20765 -0.0881,-0.20765 c 6.28025,-2.59264 11.67319,-5.50622 16.40538,-8.891757 z"
         id="path3971" />
      <path
         inkscape:connector-curvature="0"
         style="fill:#e30016;fill-opacity:1;fill-rule:evenodd;stroke:none;stroke-width:0.37795275;stroke-miterlimit:4;stroke-dasharray:none"
         d="m 118.73944,105.80128 0.0881,0.20765 c -12.63598,5.22934 -25.020286,7.60802 -39.588173,7.60802 v -0.22654 -0.22655 c 14.504958,0 26.838883,-2.3661 39.411933,-7.57026 z"
         id="path3975" />
      <path
         inkscape:connector-curvature="0"
         style="fill:#e30016;fill-opacity:1;fill-rule:evenodd;stroke:none;stroke-width:0.37795275;stroke-miterlimit:4;stroke-dasharray:none"
         d="m 79.239337,113.39044 v 0.22654 c -14.580472,0 -26.964722,-2.37868 -39.60074,-7.60802 l 0.08799,-0.20765 0.08799,-0.20764 c 12.573067,5.20416 24.906996,7.57027 39.42454,7.57027 z"
         id="path3977" />
      <path
         inkscape:connector-curvature="0"
         style="fill:#e30016;fill-opacity:1;fill-rule:evenodd;stroke:none;stroke-width:0.37795275;stroke-miterlimit:4;stroke-dasharray:none"
         d="m 39.726705,105.80128 -0.08799,0.20765 c -6.31169,-2.60521 -11.736098,-5.53137 -16.493495,-8.942087 l 0.132132,-0.182513 0.132133,-0.182513 c 4.73221,3.385533 10.125173,6.299123 16.405417,8.891763 z"
         id="path3981" />
      <path
         inkscape:connector-curvature="0"
         style="fill:#e30016;fill-opacity:1;fill-rule:evenodd;stroke:none;stroke-width:0.37795275;stroke-miterlimit:4;stroke-dasharray:none"
         d="M 23.277264,96.884357 23.145131,97.06687 C 18.381475,93.656134 14.29115,89.767174 10.641305,85.242641 l 0.176277,-0.144756 0.176278,-0.144756 c 3.618368,4.499365 7.683537,8.363157 12.415748,11.748703 z"
         id="path3983" />
      <path
         inkscape:connector-curvature="0"
         style="fill:#e30016;fill-opacity:1;fill-rule:evenodd;stroke:none;stroke-width:0.37795275;stroke-miterlimit:4;stroke-dasharray:none"
         d="m 10.817461,85.097892 -0.176277,0.144756 C 6.9850507,80.705511 4.3231748,76.218724 2.5800567,71.555747 l 0.2140724,-0.08183 0.2077229,-0.07552 c 1.7305398,4.618934 4.3672289,9.067975 7.991917,13.554758 z"
         id="path3987" />
      <path
         inkscape:connector-curvature="0"
         style="fill:#e30016;fill-opacity:1;fill-rule:evenodd;stroke:none;stroke-width:0.37795275;stroke-miterlimit:4;stroke-dasharray:none"
         d="M 2.7941291,71.47392 2.5800567,71.55575 C 0.83064945,66.886462 0,62.047279 0,56.811643 h 0.22646929 0.22646929 c 0,5.178996 0.82436032,9.967839 2.54858082,14.586766 z"
         id="path3989" />
      <path
         inkscape:connector-curvature="0"
         style="fill:#e30016;fill-opacity:1;fill-rule:evenodd;stroke:none;stroke-width:0.37795275;stroke-miterlimit:4;stroke-dasharray:none"
         d="M 0.22665071,56.811636 H 1.8141732e-4 c 0,-5.235628 0.83064945268,-10.074815 2.58005668268,-14.744096 l 0.2140725,0.07551 0.2077228,0.08183 C 1.2778129,46.843805 0.4534526,51.632644 0.4534526,56.811647 Z"
         id="path3991" />
      <path
         inkscape:connector-curvature="0"
         style="fill:#e30016;fill-opacity:1;fill-rule:evenodd;stroke:none;stroke-width:0.37795275;stroke-miterlimit:4;stroke-dasharray:none"
         d="m 2.7941291,42.143051 -0.2140724,-0.07552 c 1.7431181,-4.669292 4.404994,-9.156079 8.0611273,-13.693198 l 0.176277,0.144756 0.176278,0.144756 C 7.3690507,33.150629 4.7323616,37.599659 3.0018217,42.224882 Z"
         id="path3993" />
      <path
         inkscape:connector-curvature="0"
         style="fill:#e30016;fill-opacity:1;fill-rule:evenodd;stroke:none;stroke-width:0.37795275;stroke-miterlimit:4;stroke-dasharray:none"
         d="m 10.817461,28.519087 -0.176277,-0.144718 c 3.649845,-4.524545 7.74017,-8.413512 12.503826,-11.82423 l 0.132133,0.182514 0.132132,0.182475 c -4.73218,3.38555 -8.797349,7.249338 -12.415748,11.748718 z"
         id="path3997" />
      <path
         inkscape:connector-curvature="0"
         style="fill:#e30016;fill-opacity:1;fill-rule:evenodd;stroke:none;stroke-width:0.37795275;stroke-miterlimit:4;stroke-dasharray:none"
         d="m 23.277264,16.732626 -0.132133,-0.182513 c 4.757398,-3.410699 10.181806,-6.336858 16.493496,-8.9420941 l 0.08799,0.2076472 0.08799,0.2076473 C 33.534357,10.615956 28.141425,13.529537 23.409214,16.915075 Z"
         id="path3999" />
      <path
         inkscape:connector-curvature="0"
         style="fill:#e30016;fill-opacity:1;fill-rule:evenodd;stroke:none;stroke-width:0.37795275;stroke-miterlimit:4;stroke-dasharray:none"
         d="M 39.726705,7.8156926 39.638717,7.6080454 C 52.274736,2.3787099 64.658978,1.8897638e-5 79.226903,1.8897638e-5 V 0.22656378 0.45310866 c -14.504996,0 -26.838902,2.36610144 -39.411969,7.57027654 z"
         id="path4003" />
    </pattern>
    <filter
       inkscape:collect="always"
       style="color-interpolation-filters:sRGB"
       id="filter2939"
       x="-0.034054853"
       width="1.0681098"
       y="-0.047302209"
       height="1.0946044">
      <feGaussianBlur
         inkscape:collect="always"
         stdDeviation="0.59989585"
         id="feGaussianBlur2941" />
    </filter>
  </defs>
  <sodipodi:namedview
     id="base"
     pagecolor="#ffffff"
     bordercolor="#666666"
     borderopacity="1.0"
     inkscape:pageopacity="0.0"
     inkscape:pageshadow="2"
     inkscape:zoom="5.6568543"
     inkscape:cx="72.044732"
     inkscape:cy="75.009845"
     inkscape:document-units="mm"
     inkscape:current-layer="layer1"
     showgrid="false"
     fit-margin-top="0"
     fit-margin-left="0"
     fit-margin-right="0"
     fit-margin-bottom="0"
     units="cm"
     inkscape:window-width="1920"
     inkscape:window-height="1138"
     inkscape:window-x="-8"
     inkscape:window-y="-8"
     inkscape:window-maximized="1"
     showguides="false" />
  <metadata
     id="metadata189">
    <rdf:RDF>
      <cc:Work
         rdf:about="">
        <dc:format>image/svg+xml</dc:format>
        <dc:type
           rdf:resource="http://purl.org/dc/dcmitype/StillImage" />
        <dc:title></dc:title>
      </cc:Work>
    </rdf:RDF>
  </metadata>
  <g
     inkscape:label="Layer 1"
     inkscape:groupmode="layer"
     id="layer1"
     transform="translate(-83.646794,-44.758893)">
    <path
       style="opacity:0.71600001;fill:#feffff;fill-opacity:1;stroke:none;stroke-width:0.19452992;stroke-miterlimit:4;stroke-dasharray:none;stroke-dashoffset:0;stroke-opacity:1;filter:url(#filter2939)"
       d="M 106.55887,46.630323 A 21.138788,15.218628 0 0 0 85.419929,61.84871 21.138788,15.218628 0 0 0 106.55887,77.067591 21.138788,15.218628 0 0 0 127.69731,61.84871 21.138788,15.218628 0 0 0 106.55887,46.630323 Z m -0.0141,5.459097 c 2.7347,0 5.06004,0.409271 7.42894,1.302161 2.37212,0.89289 4.07524,2.007119 5.44177,3.555749 1.36656,1.551813 1.99016,3.070319 1.99016,4.860873 0,1.788962 -0.6236,3.307302 -1.99016,4.855933 -1.36653,1.551817 -3.06999,2.665827 -5.43727,3.558714 -2.37374,0.89289 -4.69874,1.301666 -7.43344,1.301666 -2.73309,0 -5.05855,-0.408776 -7.427445,-1.301666 -2.373734,-0.892887 -4.075736,-2.006897 -5.442285,-3.558714 -1.368153,-1.548631 -1.991653,-3.066971 -1.991653,-4.855933 0,-1.790554 0.6235,-3.30906 1.991653,-4.860873 1.366549,-1.54863 3.068379,-2.662859 5.437284,-3.555749 2.373716,-0.89289 4.699356,-1.302161 7.432446,-1.302161 z"
       id="ellipse2865"
       inkscape:connector-curvature="0"
       transform="matrix(1.0177736,0,0,1.0264595,-1.8260147,-1.6273995)" />
    <path
       style="fill:#e30016;fill-opacity:1;fill-rule:evenodd;stroke:none;stroke-width:0.16701116"
       d="m 79.207031,2.78125 c -13.951181,0 -25.80014,2.2602288 -37.888672,7.244141 C 29.236147,14.990435 20.537785,21.176134 13.552734,29.791016 6.5677139,38.399608 3.3964844,46.862887 3.3964844,56.792969 c 0,9.948967 3.1712295,18.406599 10.1562496,27.021484 6.985051,8.608577 15.683383,14.794725 27.765625,19.759767 12.088532,4.98392 23.956118,7.24219 37.919922,7.24219 13.951181,0 25.819689,-2.25827 37.908199,-7.24219 12.08225,-4.965042 20.77862,-11.15119 27.76368,-19.759767 6.98502,-8.614885 10.15625,-17.072517 10.15625,-27.021484 0,-9.930082 -3.17123,-18.393361 -10.15625,-27.001953 C 137.9251,21.176134 129.22873,14.990435 117.14648,10.025391 105.05797,5.0414788 93.189462,2.78125 79.238281,2.78125 Z m 0.0332,15.605469 c 10.678942,0 19.759297,1.618162 29.009769,5.148437 9.26306,3.530279 15.91372,7.935676 21.25,14.058594 5.33635,6.135504 7.77148,12.139317 7.77148,19.21875 0,7.073133 -2.43513,13.076293 -7.77148,19.199219 -5.33628,6.135515 -11.98823,10.540048 -21.23242,14.070312 -9.269334,3.530279 -18.348407,5.146485 -29.027349,5.146485 -10.67263,0 -19.753467,-1.616206 -29.003906,-5.146485 C 40.966991,86.551767 34.320675,82.147234 28.984375,76.011719 23.641756,69.888793 21.207031,63.885633 21.207031,56.8125 c 0,-7.079433 2.434725,-13.083246 7.777344,-19.21875 5.3363,-6.122918 11.981953,-10.528315 21.232422,-14.058594 9.269306,-3.530275 18.350807,-5.148437 29.023437,-5.148437 z"
       transform="matrix(0.26458333,0,0,0.26458333,85.625532,46.868228)"
       id="path3891"
       inkscape:connector-curvature="0" />
    <path
       inkscape:connector-curvature="0"
       style="fill:#e30016;fill-opacity:1;fill-rule:evenodd;stroke:none;stroke-width:0.04418837"
       d="m 106.58262,47.634119 v -0.02997 -0.02997 h 0.008 v 0.02997 0.02997 z"
       id="path3893" />
    <path
       inkscape:connector-curvature="0"
       style="fill:#e30016;fill-opacity:1;fill-rule:evenodd;stroke:none;stroke-width:0.04418837"
       d="m 106.59094,47.604152 v -0.02997 c 3.69625,0 6.83973,0.597727 10.04148,1.918053 l -0.0117,0.0283 -0.0117,0.0283 c -3.19507,-1.316997 -6.33188,-1.914725 -10.01814,-1.914725 z"
       id="path3895" />
    <path
       inkscape:connector-curvature="0"
       style="fill:#e30016;fill-opacity:1;fill-rule:evenodd;stroke:none;stroke-width:0.04418837"
       d="m 116.60911,49.548844 0.0117,-0.0283 z"
       id="path3897" />
    <path
       inkscape:connector-curvature="0"
       style="fill:#e30016;fill-opacity:1;fill-rule:evenodd;stroke:none;stroke-width:0.04418837"
       d="m 116.62077,49.520539 0.0117,-0.0283 c 1.60004,0.657667 2.97697,1.396916 4.18408,2.257709 l -0.0166,0.02331 -0.0183,0.02498 c -1.20379,-0.857466 -2.57572,-1.593386 -4.17243,-2.249387 z"
       id="path3899" />
    <path
       inkscape:connector-curvature="0"
       style="fill:#e30016;fill-opacity:1;fill-rule:evenodd;stroke:none;stroke-width:0.04418837"
       d="m 120.79986,51.773252 0.0166,-0.02331 c 1.20877,0.859128 2.24772,1.839799 3.17344,2.981974 l -0.0233,0.0183 -0.0233,0.0183 c -0.9224,-1.13718 -1.95801,-2.114522 -3.16179,-2.97032 z"
       id="path3901" />
    <path
       inkscape:connector-curvature="0"
       style="fill:#e30016;fill-opacity:1;fill-rule:evenodd;stroke:none;stroke-width:0.04418837"
       d="m 123.96664,54.750232 0.0233,-0.0183 c 0.92573,1.142174 1.60005,2.272694 2.04126,3.449833 l -0.0283,0.01 -0.0283,0.01 c -0.43955,-1.168811 -1.10887,-2.296 -2.03127,-3.433178 z"
       id="path3903" />
    <path
       inkscape:connector-curvature="0"
       style="fill:#e30016;fill-opacity:1;fill-rule:evenodd;stroke:none;stroke-width:0.04418837"
       d="m 126.00291,58.191738 0.0283,-0.01 c 0.44288,1.175473 0.65267,2.395901 0.65267,3.712897 h -0.03 -0.03 c 0,-1.310336 -0.20979,-2.522439 -0.64934,-3.692918 z"
       id="path3905" />
    <path
       inkscape:connector-curvature="0"
       style="fill:#e30016;fill-opacity:1;fill-rule:evenodd;stroke:none;stroke-width:0.04418837"
       d="m 126.65392,61.894647 h 0.03 c 0,1.320328 -0.20979,2.540757 -0.65267,3.717894 l -0.0283,-0.01 -0.0283,-0.01166 c 0.43955,-1.168814 0.64933,-2.384248 0.64933,-3.696249 z"
       id="path3907" />
    <path
       inkscape:connector-curvature="0"
       style="fill:#e30016;fill-opacity:1;fill-rule:evenodd;stroke:none;stroke-width:0.04418837"
       d="m 126.00291,65.602551 0.0283,0.01 c -0.44122,1.177136 -1.11553,2.307658 -2.04126,3.449832 l -0.0233,-0.01831 -0.0233,-0.01833 c 0.9224,-1.137177 1.59172,-2.264368 2.03127,-3.434846 z"
       id="path3909" />
    <path
       inkscape:connector-curvature="0"
       style="fill:#e30016;fill-opacity:1;fill-rule:evenodd;stroke:none;stroke-width:0.04418837"
       d="m 123.96664,69.044061 0.0233,0.01831 c -0.92573,1.142173 -1.96467,2.122844 -3.17344,2.981971 l -0.0166,-0.02498 -0.0183,-0.02331 c 1.20378,-0.857462 2.23939,-1.833139 3.16179,-2.970317 z"
       id="path3911" />
    <path
       inkscape:connector-curvature="0"
       style="fill:#e30016;fill-opacity:1;fill-rule:evenodd;stroke:none;stroke-width:0.04418837"
       d="m 120.79986,72.019371 0.0166,0.02498 c -1.20711,0.859128 -2.58405,1.598378 -4.18409,2.256043 l -0.0117,-0.0283 -0.0117,-0.0283 c 1.59671,-0.655999 2.96865,-1.39192 4.17243,-2.247716 z"
       id="path3913" />
    <path
       inkscape:connector-curvature="0"
       style="fill:#e30016;fill-opacity:1;fill-rule:evenodd;stroke:none;stroke-width:0.04418837"
       d="m 116.60911,74.243781 0.0117,0.0283 z"
       id="path3915" />
    <path
       inkscape:connector-curvature="0"
       style="fill:#e30016;fill-opacity:1;fill-rule:evenodd;stroke:none;stroke-width:0.04418837"
       d="m 116.62077,74.272087 0.0117,0.0283 c -3.20175,1.320326 -6.34523,1.918052 -10.04148,1.918052 v -0.02997 -0.02997 c 3.68625,0 6.82308,-0.59773 10.01817,-1.914726 z"
       id="path3917" />
    <path
       inkscape:connector-curvature="0"
       style="fill:#e30016;fill-opacity:1;fill-rule:evenodd;stroke:none;stroke-width:0.04418837"
       d="m 106.59094,76.188475 v 0.02997 c -3.69957,0 -6.843048,-0.597726 -10.0448,-1.918052 l 0.01168,-0.0283 0.01168,-0.0283 c 3.195096,1.316996 6.33191,1.914724 10.02149,1.914724 z"
       id="path3919" />
    <path
       inkscape:connector-curvature="0"
       style="fill:#e30016;fill-opacity:1;fill-rule:evenodd;stroke:none;stroke-width:0.04418837"
       d="m 96.569452,74.243781 -0.01168,0.0283 z"
       id="path3921" />
    <path
       inkscape:connector-curvature="0"
       style="fill:#e30016;fill-opacity:1;fill-rule:evenodd;stroke:none;stroke-width:0.04418837"
       d="m 96.557796,74.272087 -0.01168,0.0283 C 94.946076,73.642719 93.56914,72.90347 92.362028,72.044342 l 0.01664,-0.02498 0.01832,-0.02331 c 1.203784,0.855796 2.57572,1.591716 4.172432,2.247717 z"
       id="path3923" />
    <path
       inkscape:connector-curvature="0"
       style="fill:#e30016;fill-opacity:1;fill-rule:evenodd;stroke:none;stroke-width:0.04418837"
       d="m 92.378708,72.019371 -0.01664,0.02498 c -1.208776,-0.859128 -2.24772,-1.839799 -3.173448,-2.981972 l 0.02328,-0.01831 0.02328,-0.01831 c 0.9224,1.13718 1.958016,2.112857 3.1618,2.970319 z"
       id="path3925" />
    <path
       inkscape:connector-curvature="0"
       style="fill:#e30016;fill-opacity:1;fill-rule:evenodd;stroke:none;stroke-width:0.04418837"
       d="m 89.211916,69.044061 -0.02328,0.01831 c -0.925728,-1.14218 -1.600048,-2.272702 -2.041264,-3.449841 l 0.02832,-0.01 0.02832,-0.01166 c 0.439552,1.170479 1.108872,2.297669 2.031272,3.434846 z"
       id="path3927" />
    <path
       inkscape:connector-curvature="0"
       style="fill:#e30016;fill-opacity:1;fill-rule:evenodd;stroke:none;stroke-width:0.04418837"
       d="m 87.175652,65.602551 -0.02832,0.01 C 86.704444,64.435404 86.49466,63.214975 86.49466,61.894647 h 0.03 0.03 c 0,1.312001 0.209792,2.527436 0.649344,3.69625 z"
       id="path3929" />
    <path
       inkscape:connector-curvature="0"
       style="fill:#e30016;fill-opacity:1;fill-rule:evenodd;stroke:none;stroke-width:0.04418837"
       d="m 86.524644,61.894647 h -0.03 c 0,-1.316996 0.209784,-2.537423 0.652672,-3.712897 l 0.02832,0.01 0.02832,0.01 c -0.439552,1.170481 -0.649344,2.382583 -0.649344,3.692922 z"
       id="path3931" />
    <path
       inkscape:connector-curvature="0"
       style="fill:#e30016;fill-opacity:1;fill-rule:evenodd;stroke:none;stroke-width:0.04418837"
       d="m 87.175652,58.191738 -0.02832,-0.01 c 0.441216,-1.177139 1.115536,-2.30766 2.041264,-3.449834 l 0.02328,0.0183 0.02328,0.0183 c -0.922392,1.137176 -1.591712,2.264365 -2.031272,3.433179 z"
       id="path3933" />
    <path
       inkscape:connector-curvature="0"
       style="fill:#e30016;fill-opacity:1;fill-rule:evenodd;stroke:none;stroke-width:0.04418837"
       d="m 89.211916,54.750232 -0.02328,-0.0183 c 0.92572,-1.142174 1.964672,-2.122845 3.17344,-2.981973 l 0.01664,0.02331 0.01832,0.02498 c -1.203776,0.855798 -2.239392,1.833139 -3.161784,2.97032 z"
       id="path3935" />
    <path
       inkscape:connector-curvature="0"
       style="fill:#e30016;fill-opacity:1;fill-rule:evenodd;stroke:none;stroke-width:0.04418837"
       d="m 92.378708,51.773252 -0.01664,-0.02331 c 1.207104,-0.860793 2.58404,-1.600042 4.184088,-2.257709 l 0.01168,0.0283 0.01168,0.0283 c -1.59672,0.656 -2.968656,1.39192 -4.172432,2.249383 z"
       id="path3937" />
    <path
       inkscape:connector-curvature="0"
       style="fill:#e30016;fill-opacity:1;fill-rule:evenodd;stroke:none;stroke-width:0.04418837"
       d="m 96.569452,49.548844 -0.01168,-0.0283 z"
       id="path3939" />
    <path
       inkscape:connector-curvature="0"
       style="fill:#e30016;fill-opacity:1;fill-rule:evenodd;stroke:none;stroke-width:0.04418837"
       d="m 96.557796,49.520539 -0.01168,-0.0283 c 3.201752,-1.320327 6.340224,-1.918052 10.036474,-1.918052 v 0.02997 0.02997 c -3.68625,0 -6.818074,0.597728 -10.013162,1.914724 z"
       id="path3941" />
    <path
       inkscape:connector-curvature="0"
       style="fill:#e30016;fill-opacity:1;fill-rule:evenodd;stroke:none;stroke-width:0.04418837"
       d="m 106.59094,46.988108 v -0.05994 -0.05994 z"
       id="path3943" />
    <path
       inkscape:connector-curvature="0"
       style="fill:#e30016;fill-opacity:1;fill-rule:evenodd;stroke:none;stroke-width:0.04418837"
       d="m 106.59094,46.868232 v 0.05994 0.05994 h -0.003 v -0.05994 -0.05994 z"
       id="path3945" />
    <path
       inkscape:connector-curvature="0"
       style="fill:#e30016;fill-opacity:1;fill-rule:evenodd;stroke:none;stroke-width:0.04418837"
       d="m 106.58762,46.868232 v 0.05994 0.05994 z"
       id="path3947" />
    <path
       inkscape:connector-curvature="0"
       style="fill:#e30016;fill-opacity:1;fill-rule:evenodd;stroke:none;stroke-width:0.04418837"
       d="m 117.0187,48.991077 0.0233,-0.05494 z"
       id="path3951" />
    <path
       inkscape:connector-curvature="0"
       style="fill:#e30016;fill-opacity:1;fill-rule:evenodd;stroke:none;stroke-width:0.04418837"
       d="m 124.64429,54.452203 0.0466,-0.0383 z"
       id="path3957" />
    <path
       inkscape:connector-curvature="0"
       style="fill:#e30016;fill-opacity:1;fill-rule:evenodd;stroke:none;stroke-width:0.04418837"
       d="m 124.64429,69.345422 0.0466,0.0383 z"
       id="path3967" />
    <path
       inkscape:connector-curvature="0"
       style="fill:#e30016;fill-opacity:1;fill-rule:evenodd;stroke:none;stroke-width:0.04418837"
       d="m 117.0187,74.806543 0.0233,0.05494 z"
       id="path3973" />
    <path
       inkscape:connector-curvature="0"
       style="fill:#e30016;fill-opacity:1;fill-rule:evenodd;stroke:none;stroke-width:0.04418837"
       d="m 96.159868,74.806543 -0.02328,0.05494 z"
       id="path3979" />
    <path
       inkscape:connector-curvature="0"
       style="fill:#e30016;fill-opacity:1;fill-rule:evenodd;stroke:none;stroke-width:0.04418837"
       d="m 88.534276,69.345422 -0.04664,0.0383 z"
       id="path3985" />
    <path
       inkscape:connector-curvature="0"
       style="fill:#e30016;fill-opacity:1;fill-rule:evenodd;stroke:none;stroke-width:0.04418837"
       d="m 88.534276,54.452203 -0.04664,-0.0383 z"
       id="path3995" />
    <path
       inkscape:connector-curvature="0"
       style="fill:#e30016;fill-opacity:1;fill-rule:evenodd;stroke:none;stroke-width:0.04418837"
       d="m 96.159868,48.991077 -0.02328,-0.05494 z"
       id="path4001" />
    <g
       id="g1438"
       style="fill:#e30016;fill-opacity:1;stroke:none;stroke-width:0.1;stroke-miterlimit:4;stroke-dasharray:none;stroke-opacity:1" />
    <path
       inkscape:connector-curvature="0"
       style="fill:#e30016;fill-opacity:1;fill-rule:evenodd;stroke:none;stroke-width:0.04418837"
       d="m 106.58762,46.988108 v -0.05994 -0.05994 h 0.003 v 0.05994 0.05994 z"
       id="path4005" />
    <path
       inkscape:connector-curvature="0"
       style="fill:#ffffff;fill-opacity:1;fill-rule:evenodd;stroke:none;stroke-width:0.04418837"
       d="m 88.737404,57.106175 0.5228,-0.767556 0.814176,0.07826 -0.382944,-0.710944 0.511144,-0.74258 1.528448,2.845443 -0.511144,0.74258 -0.679312,-1.265381 z m 0,0 z m 4.97328,-4.097509 c -0.133192,0.0999 -0.203128,0.213117 -0.213112,0.339656 -0.01336,0.126538 0.0316,0.249746 0.124872,0.366295 0.08824,0.113218 0.199792,0.183146 0.332992,0.206456 0.1332,0.02165 0.2614,-0.0183 0.38628,-0.114883 0.08491,-0.06494 0.14152,-0.116548 0.178152,-0.156507 0.03992,-0.04329 0.0716,-0.08658 0.09823,-0.131534 l 0.612712,0.769219 c -0.01832,0.02498 -0.04992,0.05661 -0.08991,0.0999 -0.03496,0.03996 -0.10156,0.09157 -0.1948,0.161501 -0.38128,0.296365 -0.785872,0.41458 -1.203776,0.349645 -0.377952,-0.06161 -0.692632,-0.24475 -0.942376,-0.554436 C 92.55686,54.03429 92.4503,53.692971 92.48526,53.326676 c 0.03992,-0.414578 0.25308,-0.767554 0.639352,-1.065585 0.06328,-0.04662 0.11988,-0.08658 0.178152,-0.116549 0.05824,-0.03163 0.11156,-0.05661 0.154848,-0.08325 l 0.604384,0.754236 c -0.05328,0.0183 -0.09823,0.03496 -0.1282,0.05328 -0.07656,0.03497 -0.14652,0.07826 -0.223112,0.139858 z m 0,0 z m 5.174752,-2.117849 c 0.15984,0.366293 0.17316,0.724264 0.04824,1.07058 -0.14152,0.382945 -0.429568,0.670984 -0.874112,0.854133 -0.449544,0.183149 -0.857464,0.193136 -1.238744,0.02165 -0.342984,-0.151515 -0.596064,-0.409586 -0.750904,-0.772551 -0.156512,-0.366293 -0.17316,-0.719268 -0.04992,-1.06392 0.143192,-0.392935 0.436224,-0.677646 0.875776,-0.864123 0.444552,-0.183146 0.857464,-0.193138 1.238744,-0.02165 0.346312,0.15651 0.596064,0.41458 0.750904,0.775882 z m 0,0 z m -1.864776,0.777542 c 0.06656,0.156508 0.154848,0.266396 0.27472,0.339656 0.1332,0.07992 0.27472,0.09157 0.426232,0.03163 0.143192,-0.0616 0.231432,-0.166496 0.2664,-0.319674 0.0316,-0.134862 0.01336,-0.278051 -0.04832,-0.431229 -0.06664,-0.153177 -0.15984,-0.266396 -0.27972,-0.336326 -0.138192,-0.08325 -0.279712,-0.09157 -0.426232,-0.02997 -0.143184,0.05661 -0.231432,0.161503 -0.263064,0.304691 -0.03496,0.144854 -0.01664,0.293037 0.04992,0.441218 z m 0,0 z m 5.51607,-3.085202 1.0739,2.687274 -0.90574,0.174821 -0.80419,-2.01129 -0.0799,0.0133 0.0183,2.159473 -0.90574,0.174824 -0.0233,-2.888732 z m 0,0 z m 2.71724,2.547414 -0.0483,-2.840449 0.92905,-0.01333 0.0166,1.052265 0.57775,-0.01333 c 0.2664,-0.005 0.48451,0.06494 0.65267,0.20479 0.19147,0.153179 0.2897,0.366294 0.29303,0.637686 0.005,0.274723 -0.0799,0.49783 -0.24808,0.67265 -0.16982,0.178153 -0.39126,0.269729 -0.66599,0.274722 z m 0,0 z m 0.91074,-1.120528 0.005,0.409584 0.23975,-0.0033 c 0.15484,-0.005 0.23144,-0.07493 0.22644,-0.209788 0,-0.06993 -0.0217,-0.118215 -0.0666,-0.15318 -0.045,-0.02997 -0.0982,-0.04829 -0.16816,-0.04829 z m 0,0 z m 4.97495,-0.42457 c -0.16483,-0.02498 -0.29803,0.005 -0.3996,0.08325 -0.10156,0.07826 -0.16483,0.193138 -0.18647,0.336324 -0.0233,0.144854 0,0.271392 0.075,0.379615 0.0716,0.10989 0.19147,0.179818 0.35131,0.201461 0.10156,0.01666 0.18148,0.02498 0.23476,0.02165 0.0582,0 0.11156,-0.0083 0.16484,-0.0183 l -0.15485,0.969018 c -0.0316,0.005 -0.0766,0.005 -0.13319,0.005 -0.0582,0 -0.1432,-0.01333 -0.25808,-0.02997 -0.47951,-0.07493 -0.83915,-0.284712 -1.07891,-0.629362 -0.21311,-0.31801 -0.2897,-0.667656 -0.22643,-1.055594 0.0616,-0.389605 0.24309,-0.694296 0.54112,-0.920733 0.33299,-0.253077 0.74258,-0.344652 1.22542,-0.266396 0.0799,0.0083 0.14652,0.02498 0.20979,0.04829 0.0616,0.01666 0.11488,0.03496 0.16816,0.05162 L 111.52098,49.712 c -0.0483,-0.02498 -0.0882,-0.04662 -0.1282,-0.05994 -0.0716,-0.02664 -0.15485,-0.04828 -0.25308,-0.0666 z m 0,0 z m 3.71789,0.06993 -0.34298,0.969018 0.9507,-0.76256 0.89743,0.299693 -1.20878,0.992328 0.2947,1.706602 -0.89409,-0.301361 -0.23476,-1.370275 -0.40459,1.152163 -0.87412,-0.298033 0.94072,-2.683942 z m 0,0 z m 5.92399,3.151802 -1.65665,2.322643 -0.75923,-0.524467 0.75923,-1.065586 -1.46518,0.581076 -0.75923,-0.522802 1.65166,-2.322644 0.76422,0.524469 -0.79918,1.117198 1.55008,-0.599392 z m 0,0 z m 3.19343,2.928694 c 0.0666,0.09657 0.18314,0.153177 0.34298,0.179815 l -0.0582,0.256409 c -0.24475,-0.01666 -0.42124,-0.104894 -0.53279,-0.269727 -0.11155,-0.158172 -0.12821,-0.349645 -0.0616,-0.572754 l 0.27972,0.03996 c -0.0399,0.153177 -0.0316,0.274719 0.03,0.366295 z m 0,0 z m 0.38294,1.227086 -2.38924,1.583395 -0.52113,-0.754237 1.09721,-0.729258 -1.58006,0.02664 -0.51947,-0.7559 2.39257,-1.588387 0.51947,0.754235 -1.15383,0.769221 1.66997,-0.01332 z"
       id="path4009" />
    <path
       inkscape:connector-curvature="0"
       style="fill:#ffffff;fill-opacity:1;fill-rule:evenodd;stroke:none;stroke-width:0.04418837"
       d="m 89.6931,62.946915 c -0.01,-0.1665 -0.05824,-0.288042 -0.15984,-0.371292 -0.09823,-0.08325 -0.223112,-0.121542 -0.372952,-0.118212 -0.14652,0.01 -0.2664,0.05661 -0.364632,0.148182 -0.09324,0.09324 -0.138192,0.219777 -0.1332,0.376284 0.0032,0.104894 0.01336,0.178153 0.02168,0.231434 0.01328,0.05162 0.0316,0.104892 0.05328,0.156507 l -0.993992,0.03163 c -0.01,-0.02664 -0.01832,-0.06993 -0.02664,-0.12654 -0.01336,-0.05328 -0.01832,-0.139859 -0.02328,-0.254741 -0.01328,-0.474518 0.124872,-0.864122 0.422904,-1.160488 0.269728,-0.266398 0.60772,-0.406255 1.007312,-0.417911 0.399592,-0.01 0.742576,0.0999 1.022296,0.344652 0.319672,0.27472 0.484504,0.64934 0.50116,1.133848 0.0048,0.07826 0,0.148183 -0.0083,0.209788 -0.0083,0.0616 -0.01336,0.121542 -0.0216,0.174822 l -0.977336,0.02997 c 0.01664,-0.04829 0.03,-0.09157 0.03496,-0.129868 0.01336,-0.07992 0.02168,-0.161501 0.01832,-0.25807 z m 0,0 z m 1.659976,2.264368 c 0.09824,0.223104 0.10656,0.427899 0.03664,0.616041 -0.0716,0.18814 -0.209784,0.323004 -0.417904,0.409584 -0.15984,0.0666 -0.29304,0.09324 -0.40792,0.06993 -0.116552,-0.01664 -0.209784,-0.06993 -0.276384,-0.156507 0.03496,0.166498 0.01832,0.31468 -0.04496,0.444548 -0.06992,0.153178 -0.1948,0.266396 -0.36796,0.34132 -0.23976,0.0999 -0.4612,0.108224 -0.657664,0.02165 -0.1998,-0.08658 -0.35464,-0.261403 -0.471192,-0.527802 l -0.599392,-1.388588 2.657304,-1.108876 z m 0,0 z m -0.759224,-0.199799 -0.38628,0.161503 0.0616,0.139858 c 0.05328,0.126538 0.148184,0.164834 0.276384,0.108226 0.128208,-0.05162 0.164832,-0.143191 0.11156,-0.269729 z m 0,0 z m -1.012312,0.422903 -0.386272,0.158174 0.09324,0.218111 c 0.0616,0.138195 0.15484,0.178153 0.284712,0.126539 0.0616,-0.02664 0.10156,-0.0666 0.11488,-0.118212 0.01832,-0.05328 0.01336,-0.109889 -0.01328,-0.16983 z m 0,0 z m 4.338936,3.095197 -2.109528,1.933034 -0.634352,-0.667654 0.972344,-0.890761 -1.558416,0.27139 -0.631032,-0.667656 2.109528,-1.938036 0.631024,0.667657 -1.017296,0.929061 1.646656,-0.266397 z m 0,0 z m 1.62668,1.103875 -0.596064,0.904083 0.586072,0.374622 0.596064,-0.904083 0.777544,0.497827 -1.5734,2.374257 -0.772552,-0.492834 0.577744,-0.877441 -0.586072,-0.37462 -0.577744,0.877442 -0.777544,-0.494497 1.571736,-2.377588 z m 0,0 z m 4.565364,3.591358 c -0.138188,0.376285 -0.372956,0.646011 -0.705948,0.812508 -0.372952,0.191472 -0.782536,0.204792 -1.235408,0.03996 -0.45288,-0.161502 -0.759232,-0.427898 -0.919072,-0.807512 -0.14152,-0.344653 -0.14652,-0.702622 -0.01328,-1.070581 0.14152,-0.374622 0.372952,-0.646013 0.705952,-0.810844 0.372952,-0.188144 0.782536,-0.201462 1.235408,-0.03996 0.45288,0.161502 0.759232,0.427899 0.919068,0.807513 0.14152,0.34465 0.14652,0.702621 0.0134,1.068917 z m 0,0 z m -1.906396,-0.680976 c -0.05664,0.158172 -0.06664,0.301361 -0.03,0.432893 0.04328,0.153178 0.136528,0.253079 0.28804,0.304692 0.14652,0.05328 0.284712,0.03497 0.417912,-0.05162 0.11488,-0.07826 0.204792,-0.196469 0.2614,-0.349646 0.05824,-0.156509 0.06656,-0.30136 0.0316,-0.43123 -0.04496,-0.153177 -0.138192,-0.253075 -0.28804,-0.306354 -0.14652,-0.05162 -0.27972,-0.0383 -0.404592,0.04329 -0.124872,0.08824 -0.218112,0.206458 -0.276384,0.357971 z m 0,0 z m 4.407186,-0.299694 -0.18314,1.007308 0.80917,-0.899088 0.93739,0.161504 -1.03562,1.157159 0.56443,1.640004 -0.92906,-0.161504 -0.45287,-1.316999 -0.21312,1.200451 -0.91073,-0.158175 0.50281,-2.788835 z m 0,0 z m 5.49776,1.72325 c 0.0133,0.397929 -0.10157,0.732589 -0.34133,1.012304 -0.27638,0.309686 -0.64933,0.476182 -1.13217,0.489502 -0.48451,0.01666 -0.87079,-0.118211 -1.16383,-0.411247 -0.26639,-0.266395 -0.40459,-0.597727 -0.41791,-0.985665 -0.0133,-0.397932 0.0982,-0.737587 0.34132,-1.012307 0.27139,-0.314681 0.64935,-0.476185 1.13386,-0.492834 0.48284,-0.01831 0.86911,0.121545 1.16215,0.414581 0.26639,0.266395 0.40458,0.59273 0.41791,0.985666 z m 0,0 z m -2.02461,0.06993 c 0.003,0.166498 0.0483,0.301361 0.1332,0.409584 0.0966,0.126538 0.22643,0.183149 0.38128,0.179817 0.15983,-0.005 0.28471,-0.07492 0.36962,-0.204792 0.0799,-0.11322 0.11988,-0.258072 0.10989,-0.419574 -0.003,-0.166497 -0.0483,-0.30469 -0.1332,-0.414581 -0.0966,-0.121541 -0.22643,-0.183147 -0.38627,-0.174822 -0.15984,0.005 -0.27972,0.06993 -0.35964,0.191474 -0.0849,0.123207 -0.12488,0.266397 -0.11488,0.432894 z m 0,0 z m 6.08049,0.794194 -0.53279,-1.353627 -0.0666,1.480164 -0.51614,0.104894 -0.71095,-1.313667 0.0582,1.453525 -0.90575,0.188143 -0.0716,-2.885404 0.92906,-0.191472 0.60772,1.152163 0.0932,-1.297017 0.91074,-0.191474 1.11553,2.665628 z m 0,0 z m 3.63298,-4.159112 1.0839,2.627332 -0.86245,0.339655 -0.80752,-1.963007 -0.64934,0.256408 0.80918,1.964672 -0.86246,0.34465 -1.0839,-2.627334 z m 0,0 z m 2.67729,-1.598378 2.05624,2.051252 -0.76756,0.511147 -1.53676,-1.540101 -0.0666,0.04828 0.87411,1.976327 -0.76755,0.506153 -1.16882,-2.643982 z m 0,0 z m 2.3626,-2.226076 0.52946,0.484507 -0.63935,0.672655 0.27139,0.249747 0.45287,-0.476184 0.5278,0.484507 -0.44788,0.479514 0.25307,0.231434 0.63436,-0.675983 0.52947,0.487837 -1.26705,1.336976 -2.10953,-1.938032 z m 0,0 z m 0.89742,-1.521788 0.93738,0.449545 -0.65767,-1.013971 0.41791,-0.837484 0.84415,1.292021 1.76321,-0.07826 -0.41791,0.834153 -1.40691,0.05994 1.11387,0.537787 -0.40459,0.81584 -2.59237,-1.243738 z m 0,0 z m 1.79984,-3.369912 c -0.0183,0.164832 0.0166,0.293034 0.10157,0.387939 0.0882,0.09657 0.20478,0.153178 0.35463,0.166497 0.14818,0.01664 0.27639,-0.01332 0.38295,-0.09157 0.10656,-0.07826 0.16816,-0.196469 0.18647,-0.354642 0.008,-0.104893 0.0133,-0.183148 0.008,-0.234761 -0.003,-0.05661 -0.0133,-0.109889 -0.03,-0.161503 l 0.989,0.104892 c 0.005,0.02997 0.01,0.06993 0.01,0.12654 0.003,0.05661 0,0.143188 -0.0134,0.256407 -0.0499,0.476184 -0.24475,0.839149 -0.58274,1.092225 -0.30636,0.226436 -0.66099,0.318008 -1.06059,0.279716 -0.39627,-0.04495 -0.71594,-0.201462 -0.96402,-0.484508 -0.27473,-0.31468 -0.38628,-0.712612 -0.333,-1.192124 0.008,-0.07826 0.0217,-0.144853 0.035,-0.204792 0.0183,-0.0616 0.0366,-0.118215 0.0499,-0.169826 l 0.97235,0.0999 c -0.0266,0.04829 -0.045,0.09157 -0.0533,0.126538 -0.0266,0.07326 -0.045,0.161504 -0.0533,0.253078 z"
       id="path4011" />
    <path
       inkscape:connector-curvature="0"
       style="fill:#ffffff;fill-opacity:1;fill-rule:evenodd;stroke:none;stroke-width:0.04418837"
       d="m 89.070396,58.77448 v 0 c 0.0032,0 0.0032,0 0.0083,0 0.08825,0 0.164832,0.02165 0.23976,0.06494 0.07992,0.04329 0.133192,0.09657 0.178152,0.174825 0.04328,0.07326 0.06656,0.148181 0.06656,0.234761 v 0 0 c 0,0.09157 -0.02328,0.166497 -0.06656,0.239755 -0.04496,0.07992 -0.09823,0.131534 -0.178152,0.174824 -0.07496,0.04495 -0.151512,0.0666 -0.23976,0.0666 -0.09324,0 -0.16816,-0.02164 -0.244752,-0.0666 -0.07992,-0.04329 -0.1332,-0.0949 -0.176488,-0.174824 -0.04496,-0.07326 -0.06656,-0.148182 -0.06656,-0.239755 0,-0.08658 0.02168,-0.161503 0.06656,-0.234761 0.04328,-0.07826 0.09657,-0.131534 0.176488,-0.174825 0.07656,-0.04329 0.151512,-0.06494 0.236424,-0.06494 z"
       id="path4013" />
    <path
       inkscape:connector-curvature="0"
       style="fill:#ffffff;fill-opacity:1;fill-rule:evenodd;stroke:none;stroke-width:0.04418837"
       d="m 124.19308,58.77448 v 0 c 0.005,0 0.005,0 0.008,0 0.0899,0 0.16483,0.02165 0.23976,0.06494 0.0799,0.04329 0.1332,0.09657 0.17815,0.174825 0.045,0.07326 0.0666,0.148181 0.0666,0.234761 v 0 0 c 0,0.09157 -0.0217,0.166497 -0.0666,0.239755 -0.045,0.07992 -0.0982,0.131534 -0.17815,0.174824 -0.075,0.04495 -0.14985,0.0666 -0.23976,0.0666 -0.0932,0 -0.16816,-0.02164 -0.24309,-0.0666 -0.0799,-0.04329 -0.1332,-0.0949 -0.17815,-0.174824 -0.045,-0.07326 -0.0666,-0.148182 -0.0666,-0.239755 0,-0.08658 0.0217,-0.161503 0.0666,-0.234761 0.045,-0.07826 0.0982,-0.131534 0.17815,-0.174825 0.075,-0.04329 0.14985,-0.06494 0.23476,-0.06494 z"
       id="path4015" />
    <path
       inkscape:connector-curvature="0"
       style="opacity:0.674;fill:#fef1eb;fill-opacity:1;fill-rule:evenodd;stroke:none;stroke-width:0.04418837"
       d="m 106.58712,51.775471 v 0 c 2.82547,0 5.22803,0.427899 7.67555,1.361951 2.45085,0.934053 4.21073,2.099536 5.62262,3.719558 1.41191,1.623352 2.05625,3.21174 2.05625,5.08484 v 0 0 c 0,1.871433 -0.64434,3.45982 -2.05625,5.079844 -1.41189,1.623355 -3.17177,2.788839 -5.61763,3.722888 -2.45251,0.934053 -4.85507,1.361952 -7.68054,1.361952 -2.8238,0 -5.22636,-0.427899 -7.673874,-1.361952 -2.452505,-0.934049 -4.210706,-2.099533 -5.622597,-3.722888 -1.413554,-1.620024 -2.057898,-3.208411 -2.057898,-5.079844 0,-1.8731 0.644344,-3.461488 2.057898,-5.08484 1.411891,-1.620022 3.170092,-2.785505 5.617607,-3.719558 2.452504,-0.934052 4.855064,-1.361951 7.678864,-1.361951 z"
       id="path2868" />
    <path
       inkscape:connector-curvature="0"
       style="fill:#e30016;fill-opacity:1;fill-rule:evenodd;stroke:none;stroke-width:0.04418837"
       d="m 115.6351,61.16206 c -1.13718,-1.321993 -2.2294,-2.627336 -4.04256,-3.176777 -3.19343,-0.974012 -6.43015,-1.157161 -9.56696,0.0999 -1.77986,0.715939 -3.854416,1.994643 -4.090848,3.972636 -0.296368,2.455841 1.869768,4.189081 4.082528,5.049872 3.22838,1.257062 7.14108,1.37028 10.29954,-0.131532 1.59838,-0.759229 2.3626,-1.658318 3.26502,-3.055231 l 0.1282,0.02997 c -1.19046,3.456492 -4.74851,5.049877 -8.79773,5.089836 -3.60302,0.0383 -7.901982,-0.990662 -9.843342,-4.102506 -1.358624,-2.191109 -0.5278,-4.806786 1.483488,-6.355217 1.768204,-1.361949 4.139134,-2.156144 6.410164,-2.344285 2.83212,-0.223108 5.76914,0.30136 8.15838,1.776529 1.37694,0.847473 1.92804,1.789851 2.51412,3.146808 z"
       id="path4017" />
    <path
       inkscape:connector-curvature="0"
       style="fill:#e30016;fill-opacity:1;fill-rule:evenodd;stroke:none;stroke-width:0.04418837"
       d="m 116.93045,58.49976 c -0.48784,0.03996 -0.92239,0.05661 -1.33531,-0.279717 -0.55111,-0.439552 -0.81417,-1.00398 -1.22709,-1.545098 -0.23975,-0.323005 -0.56775,-0.243086 -0.81251,0.03163 -1.968,2.199435 -2.11784,5.421165 -3.54806,7.882002 -0.52946,0.90741 -1.42689,1.693281 -2.37592,2.10786 -3.96265,1.719924 -6.13878,-1.618357 -6.1521,-2.635658 1.47018,3.058562 5.30796,2.942013 7.19936,0.406254 1.4835,-1.994643 1.86145,-5.757492 3.88606,-8.158386 0.51947,-0.611048 1.38693,-0.985666 2.1012,-0.466195 0.64434,0.471189 0.74092,1.413565 1.24374,2.002967 0.25808,0.301362 0.68764,0.462865 1.02063,0.654337 z"
       id="path4019" />
    <path
       inkscape:connector-curvature="0"
       style="fill:#e30016;fill-opacity:1;fill-rule:evenodd;stroke:none;stroke-width:0.04418837"
       d="m 95.02102,58.634624 c 0.51948,-0.301363 1.003984,-0.519474 1.341976,-1.033951 0.497824,-0.764225 0.737584,-2.072895 1.963008,-1.911394 0.621032,0.08159 1.038944,0.636021 1.350296,1.112206 0.86079,1.313665 1.63001,3.814461 2.291,4.368899 0.24975,0.21478 0.65767,0.293034 1.04061,0.188142 3.22007,-0.890763 5.07651,-0.169827 5.88903,2.304327 -1.64,-2.209424 -3.69126,-2.344286 -5.93897,-1.205442 -0.47952,0.244751 -1.22543,0.319676 -1.76321,-0.33133 -0.99899,-1.208774 -1.928044,-3.814462 -2.687276,-5.184741 -0.44788,-0.807513 -0.950704,0.169829 -1.287024,0.611048 -0.364632,0.479515 -0.777544,0.964023 -1.413568,1.098887 -0.256408,0.05827 -0.5228,0.01 -0.785872,-0.01666 z"
       id="path4021" />
    <ellipse
       style="fill:none;fill-opacity:1;stroke:#e30016;stroke-width:0.291;stroke-miterlimit:4;stroke-dasharray:none;stroke-dashoffset:0;stroke-opacity:1"
       id="path2238"
       cx="106.60323"
       cy="61.881607"
       rx="20.849312"
       ry="14.936729" />
  </g>
</svg>
